<?xml version="1.0" encoding="utf-8"?>
<!-- Generator: Adobe Illustrator 14.0.0, SVG Export Plug-In . SVG Version: 6.00 Build 43363)  -->
<!DOCTYPE svg PUBLIC "-//W3C//DTD SVG 1.1//EN" "http://www.w3.org/Graphics/SVG/1.1/DTD/svg11.dtd">
<svg version="1.1" xmlns="http://www.w3.org/2000/svg" xmlns:xlink="http://www.w3.org/1999/xlink" x="0px" y="0px" width="534px"
	 height="259px" viewBox="0 0 534 259" enable-background="new 0 0 534 259" xml:space="preserve">
<g id="Layer_2">
</g>
<g id="Layer_1">
	<g>
		<g id="XMLID_1_">
			<g>
				<path fill="#ED1F24" d="M409.93,89.35h47.181v1.75c0,35.13,31.26,51.06,73.529,51.85v0.04V253.68V255H3.02v-1.32V142.99v-0.03
					c42.68-0.71,79.53-16.64,79.53-51.86v-1.75h43.28C126.98,51.16,192.71,6,264.83,6h6.47C344.05,6,397.83,35.59,409.93,89.35z
					 M509.33,234v-1v-68.5v-0.02c-38.17-0.75-68.93-22.82-70.44-48.86h-0.06h-56.17c0-45.67-41-78.62-107.33-78.62h-8
					c-66.33,0-112,32.95-112,78.62V116h-54.57c-1.59,26-34.2,47.26-72.43,47.98V164v69v1H509.33z"/>
				<path fill="#FCFAFC" d="M382.66,115.62h56.17h0.06c1.511,26.04,32.271,48.11,70.44,48.86v0.02V233v1h-481v-1v-69v-0.02
					C66.56,163.26,99.17,142,100.76,116h54.57v-0.38c0-45.67,45.67-78.62,112-78.62h8C341.66,37,382.66,69.95,382.66,115.62z"/>
			</g>
			<g>
				<polyline fill="none" stroke="#000000" stroke-width="4" points="26.33,234 28.33,234 509.33,234 511.33,234 				"/>
				<line fill="none" stroke="#000000" stroke-width="4" x1="28.33" y1="233" x2="28.33" y2="164"/>
				<line fill="none" stroke="#000000" stroke-width="4" x1="509.33" y1="233" x2="509.33" y2="164.5"/>
				<path fill="none" stroke="#000000" stroke-width="4" d="M100.83,114c0,0.67-0.02,1.34-0.07,2c-1.59,26-34.2,47.26-72.43,47.98
					c-0.66,0.01-1.33,0.02-2,0.02"/>
				<path fill="none" stroke="#000000" stroke-width="4" d="M438.83,113.62c0,0.67,0.02,1.34,0.06,2
					c1.511,26.04,32.271,48.11,70.44,48.86c0.66,0.01,1.33,0.02,2,0.02"/>
				<polyline fill="none" stroke="#000000" stroke-width="4" points="99.33,116 100.76,116 155.33,116 157.33,116 				"/>
				<polyline fill="none" stroke="#000000" stroke-width="4" points="380.83,115.62 382.66,115.62 438.83,115.62 				"/>
				<path fill="none" stroke="#000000" stroke-width="4" d="M155.33,115.62c0-45.67,45.67-78.62,112-78.62"/>
				<path fill="none" stroke="#000000" stroke-width="4" d="M382.66,115.62c0-45.67-41-78.62-107.33-78.62"/>
				<polyline fill="none" stroke="#000000" stroke-width="4" points="257.33,37 267.33,37 275.33,37 				"/>
				<polyline fill="none" stroke="#000000" stroke-width="7" points="0,255 3.02,255 530.64,255 534,255 				"/>
				<line fill="none" stroke="#000000" stroke-width="7" x1="3.02" y1="253.68" x2="3.02" y2="142.99"/>
				<line fill="none" stroke="#000000" stroke-width="7" x1="530.64" y1="253.68" x2="530.64" y2="142.99"/>
				<path fill="none" stroke="#000000" stroke-width="7" d="M82.55,91.1c0,35.22-36.85,51.15-79.53,51.86
					c-1,0.02-2.01,0.03-3.02,0.03"/>
				<path fill="none" stroke="#000000" stroke-width="7" d="M457.11,91.1c0,35.13,31.26,51.06,73.529,51.85
					c1.11,0.03,2.23,0.04,3.36,0.04"/>
				<polyline fill="none" stroke="#000000" stroke-width="7" points="79,89.35 82.55,89.35 125.83,89.35 129,89.35 				"/>
				<polyline fill="none" stroke="#000000" stroke-width="7" points="406,89.35 409.93,89.35 457.11,89.35 460.33,89.35 				"/>
				<path fill="none" stroke="#000000" stroke-width="7" d="M125.81,90.37c0-0.34,0.01-0.68,0.02-1.02
					C126.98,51.16,192.71,6,264.83,6"/>
				<path fill="none" stroke="#000000" stroke-width="7" d="M409.93,89.35C397.83,35.59,344.05,6,271.3,6"/>
				<polyline fill="none" stroke="#000000" stroke-width="7" points="260.25,6 264.83,6 271.3,6 279.99,6 				"/>
			</g>
		</g>
	</g>
	<ellipse fill="#F9F9FA" stroke="#FEE95E" stroke-width="2" cx="37.33" cy="151.442" rx="5" ry="4.558"/>
	<g>
		<ellipse fill="#F9F9FA" stroke="#FEE95E" stroke-width="2" cx="394.999" cy="102.667" rx="5" ry="4.558"/>
		<ellipse fill="#F9F9FA" stroke="#FEE95E" stroke-width="2" cx="420.665" cy="103.167" rx="5" ry="4.558"/>
		<ellipse fill="#F9F9FA" stroke="#FEE95E" stroke-width="2" cx="446.331" cy="103.667" rx="5" ry="4.558"/>
	</g>
	<g>
		<ellipse fill="#FCFAFB" stroke="#FEE95E" stroke-width="2" cx="140.997" cy="102.667" rx="5" ry="4.558"/>
		<ellipse fill="#FCFAFB" stroke="#FEE95E" stroke-width="2" cx="117.664" cy="103.167" rx="5" ry="4.558"/>
		<ellipse fill="#FCFAFB" stroke="#FEE95E" stroke-width="2" cx="94.33" cy="103.667" rx="5" ry="4.558"/>
	</g>
	<g>
		<ellipse fill="#FDFDFE" stroke="#FAEE49" stroke-width="2" cx="518.82" cy="224.675" rx="5" ry="4.558"/>
		<ellipse fill="#FDFDFE" stroke="#FAEE49" stroke-width="2" cx="518.82" cy="207.256" rx="5" ry="4.558"/>
		<ellipse fill="#FDFDFE" stroke="#FAEE49" stroke-width="2" cx="518.82" cy="189.838" rx="5" ry="4.558"/>
		<ellipse fill="#FDFDFE" stroke="#FAEE49" stroke-width="2" cx="518.82" cy="172.419" rx="5" ry="4.558"/>
		<ellipse fill="#FDFDFE" stroke="#FAEE49" stroke-width="2" cx="518.82" cy="155" rx="5" ry="4.558"/>
	</g>
	<g>
		<ellipse fill="#F9F9FA" stroke="#FDEE27" stroke-width="2" cx="15.33" cy="154.819" rx="5" ry="4.818"/>
		<ellipse fill="#F9F9FA" stroke="#FDEE27" stroke-width="2" cx="15.33" cy="172.41" rx="5" ry="4.818"/>
		<ellipse fill="#F9F9FA" stroke="#FDEE27" stroke-width="2" cx="15.33" cy="190" rx="5" ry="4.818"/>
		<ellipse fill="#F9F9FA" stroke="#FDEE27" stroke-width="2" cx="15.33" cy="207.591" rx="5" ry="4.818"/>
		<ellipse fill="#F9F9FA" stroke="#FDEE27" stroke-width="2" cx="15.33" cy="225.182" rx="5" ry="4.818"/>
	</g>
	<g>
		<ellipse fill="#FCFAFB" stroke="#FDEE27" stroke-width="2" cx="518.82" cy="243.559" rx="5.01" ry="4.558"/>
		<ellipse fill="#FCFAFB" stroke="#FDEE27" stroke-width="2" cx="494.869" cy="243.559" rx="5.01" ry="4.558"/>
		<ellipse fill="#FCFAFB" stroke="#FDEE27" stroke-width="2" cx="470.917" cy="243.559" rx="5.01" ry="4.558"/>
		<ellipse fill="#FCFAFB" stroke="#FDEE27" stroke-width="2" cx="446.966" cy="243.559" rx="5.01" ry="4.558"/>
		<ellipse fill="#FCFAFB" stroke="#FDEE27" stroke-width="2" cx="423.015" cy="243.559" rx="5.01" ry="4.558"/>
		<ellipse fill="#FCFAFB" stroke="#FDEE27" stroke-width="2" cx="399.063" cy="243.559" rx="5.01" ry="4.558"/>
		<ellipse fill="#FCFAFB" stroke="#FDEE27" stroke-width="2" cx="375.111" cy="243.559" rx="5.01" ry="4.558"/>
		<ellipse fill="#FCFAFB" stroke="#FDEE27" stroke-width="2" cx="351.16" cy="243.559" rx="5.01" ry="4.558"/>
		<ellipse fill="#FCFAFB" stroke="#FDEE27" stroke-width="2" cx="327.209" cy="243.559" rx="5.01" ry="4.558"/>
		<ellipse fill="#FCFAFB" stroke="#FDEE27" stroke-width="2" cx="303.257" cy="243.559" rx="5.01" ry="4.558"/>
		<ellipse fill="#FCFAFB" stroke="#FDEE27" stroke-width="2" cx="279.306" cy="243.559" rx="5.01" ry="4.558"/>
		<ellipse fill="#FCFAFB" stroke="#FDEE27" stroke-width="2" cx="255.354" cy="243.559" rx="5.01" ry="4.558"/>
		<ellipse fill="#FCFAFB" stroke="#FDEE27" stroke-width="2" cx="231.403" cy="243.559" rx="5.01" ry="4.558"/>
		<ellipse fill="#FCFAFB" stroke="#FDEE27" stroke-width="2" cx="207.452" cy="243.559" rx="5.01" ry="4.558"/>
		<ellipse fill="#FCFAFB" stroke="#FDEE27" stroke-width="2" cx="183.5" cy="243.559" rx="5.01" ry="4.558"/>
		<ellipse fill="#FCFAFB" stroke="#FDEE27" stroke-width="2" cx="159.548" cy="243.559" rx="5.01" ry="4.558"/>
		<ellipse fill="#FCFAFB" stroke="#FDEE27" stroke-width="2" cx="135.597" cy="243.559" rx="5.01" ry="4.558"/>
		<ellipse fill="#FCFAFB" stroke="#FDEE27" stroke-width="2" cx="111.646" cy="243.559" rx="5.01" ry="4.558"/>
		<ellipse fill="#FCFAFB" stroke="#FDEE27" stroke-width="2" cx="87.694" cy="243.559" rx="5.01" ry="4.558"/>
		<ellipse fill="#FCFAFB" stroke="#FDEE27" stroke-width="2" cx="63.743" cy="243.559" rx="5.01" ry="4.558"/>
		<ellipse fill="#FCFAFB" stroke="#FDEE27" stroke-width="2" cx="39.792" cy="243.559" rx="5.01" ry="4.558"/>
		<ellipse fill="#FCFAFB" stroke="#FDEE27" stroke-width="2" cx="15.84" cy="243.559" rx="5.01" ry="4.558"/>
	</g>
	<g>
		<ellipse fill="#F9F9FA" stroke="#FEE95E" stroke-width="2" cx="391.999" cy="84.796" rx="5" ry="4.558"/>
		<ellipse fill="#F9F9FA" stroke="#FEE95E" stroke-width="2" cx="380.348" cy="65.294" rx="5" ry="4.558"/>
		<ellipse fill="#F9F9FA" stroke="#FEE95E" stroke-width="2" cx="365.577" cy="48.775" rx="5" ry="4.558"/>
		<ellipse fill="#F9F9FA" stroke="#FEE95E" stroke-width="2" cx="346.613" cy="36.268" rx="5" ry="4.558"/>
		<ellipse fill="#F9F9FA" stroke="#FEE95E" stroke-width="2" cx="325.414" cy="28.634" rx="5" ry="4.558"/>
		<ellipse fill="#F9F9FA" stroke="#FEE95E" stroke-width="2" cx="303.563" cy="22.423" rx="5" ry="4.558"/>
		<ellipse fill="#F9F9FA" stroke="#FEE95E" stroke-width="2" cx="280.963" cy="20.906" rx="5" ry="4.558"/>
		<ellipse fill="#F9F9FA" stroke="#FEE95E" stroke-width="2" cx="258.322" cy="21.365" rx="5" ry="4.558"/>
		<ellipse fill="#F9F9FA" stroke="#FEE95E" stroke-width="2" cx="235.791" cy="24.266" rx="5" ry="4.558"/>
		<ellipse fill="#F9F9FA" stroke="#FEE95E" stroke-width="2" cx="214.134" cy="30.606" rx="5" ry="4.558"/>
		<ellipse fill="#F9F9FA" stroke="#FEE95E" stroke-width="2" cx="192.951" cy="38.813" rx="5" ry="4.558"/>
		<ellipse fill="#F9F9FA" stroke="#FEE95E" stroke-width="2" cx="173.72" cy="50.632" rx="5" ry="4.558"/>
		<ellipse fill="#F9F9FA" stroke="#FEE95E" stroke-width="2" cx="157.024" cy="65.523" rx="5" ry="4.558"/>
		<ellipse fill="#F9F9FA" stroke="#FEE95E" stroke-width="2" cx="144.997" cy="84.796" rx="5" ry="4.558"/>
	</g>
	<ellipse fill="#F9F9FA" stroke="#FEE95E" stroke-width="2" cx="498.554" cy="152.105" rx="5" ry="4.558"/>
	<ellipse fill="#F9F9FA" stroke="#FEE95E" stroke-width="2" cx="480.08" cy="147.547" rx="5" ry="4.558"/>
	<ellipse fill="#F9F9FA" stroke="#FEE95E" stroke-width="2" cx="462.108" cy="136.768" rx="5" ry="4.558"/>
	<ellipse fill="#F9F9FA" stroke="#FEE95E" stroke-width="2" cx="451.331" cy="121.602" rx="5" ry="4.558"/>
	<ellipse fill="#F9F9FA" stroke="#FEE95E" stroke-width="2" cx="87.549" cy="121.602" rx="5" ry="4.558"/>
	<ellipse fill="#F9F9FA" stroke="#FEE95E" stroke-width="2" cx="73.997" cy="136.768" rx="5" ry="4.558"/>
	<ellipse fill="#F9F9FA" stroke="#FEE95E" stroke-width="2" cx="56.58" cy="145.884" rx="5" ry="4.558"/>
	<g>
		<path d="M193.854,113.047h-3.195l-2.195-11.748h-7.54l-2.044,11.748h-3.195l7.601-40.975h2.877L193.854,113.047z M185.087,81.919
			c-0.051-0.295-0.114-0.723-0.189-1.282c-0.076-0.559-0.139-1.145-0.189-1.757h-0.061c-0.051,0.654-0.114,1.262-0.189,1.821
			c-0.076,0.56-0.149,1.029-0.219,1.409l-2.377,13.743h5.708L185.087,81.919z"/>
		<path d="M199.925,87.049h2.832v4.148h-2.832v21.849h-2.907V91.198h-2.302v-4.148h2.302v-5.7c0-3.208,0.375-5.647,1.128-7.315
			c0.751-1.667,1.779-2.501,3.081-2.501c0.232,0,0.494,0.053,0.787,0.158c0.293,0.106,0.54,0.233,0.742,0.38v4.971
			c-0.091-0.042-0.202-0.089-0.333-0.143c-0.131-0.052-0.265-0.095-0.401-0.126s-0.265-0.058-0.386-0.079s-0.227-0.032-0.318-0.032
			c-0.404,0-0.737,0.338-1,1.013c-0.262,0.676-0.394,1.742-0.394,3.198V87.049z"/>
		<path d="M209.418,87.049h2.832v4.148h-2.832v21.849h-2.907V91.198h-2.302v-4.148h2.302v-5.7c0-3.208,0.375-5.647,1.128-7.315
			c0.751-1.667,1.779-2.501,3.081-2.501c0.232,0,0.494,0.053,0.787,0.158c0.293,0.106,0.54,0.233,0.742,0.38v4.971
			c-0.091-0.042-0.202-0.089-0.333-0.143c-0.131-0.052-0.265-0.095-0.401-0.126s-0.265-0.058-0.386-0.079s-0.227-0.032-0.318-0.032
			c-0.404,0-0.737,0.338-1,1.013c-0.262,0.676-0.394,1.742-0.394,3.198V87.049z"/>
		<path d="M227.572,99.938c0,2.048-0.157,3.916-0.47,5.604c-0.313,1.689-0.757,3.13-1.332,4.322
			c-0.576,1.193-1.274,2.117-2.097,2.771s-1.749,0.981-2.778,0.981c-0.989,0-1.885-0.316-2.688-0.95
			c-0.802-0.633-1.486-1.525-2.051-2.676c-0.565-1.15-1.002-2.549-1.31-4.196c-0.308-1.646-0.462-3.483-0.462-5.51
			c0-2.174,0.156-4.117,0.469-5.827s0.765-3.161,1.355-4.354c0.591-1.192,1.307-2.1,2.15-2.723c0.843-0.623,1.794-0.934,2.854-0.934
			c1.02,0,1.923,0.306,2.71,0.918c0.787,0.612,1.451,1.499,1.991,2.66c0.54,1.161,0.951,2.576,1.234,4.243
			C227.43,95.937,227.572,97.827,227.572,99.938z M224.649,99.938c0-2.871-0.303-5.035-0.908-6.492
			c-0.606-1.457-1.489-2.185-2.65-2.185c-1.171,0-2.084,0.75-2.74,2.249c-0.656,1.499-0.984,3.684-0.984,6.555
			c0,1.373,0.086,2.602,0.257,3.689c0.172,1.087,0.419,2.006,0.742,2.755c0.323,0.75,0.714,1.325,1.173,1.726
			c0.459,0.401,0.977,0.602,1.552,0.602c1.161,0,2.044-0.76,2.65-2.28C224.347,105.036,224.649,102.83,224.649,99.938z"/>
		<path d="M236.565,86.448c0.343,0,0.674,0.079,0.992,0.237c0.318,0.159,0.638,0.364,0.961,0.618v4.94
			c-0.343-0.169-0.707-0.29-1.09-0.364c-0.383-0.074-0.747-0.111-1.09-0.111c-0.384,0-0.709,0.174-0.977,0.522
			c-0.268,0.348-0.482,0.813-0.644,1.394c-0.162,0.581-0.278,1.256-0.348,2.026c-0.071,0.771-0.106,1.578-0.106,2.422v14.915h-2.907
			V95.789c0-0.781-0.015-1.604-0.045-2.47s-0.068-1.699-0.113-2.501s-0.096-1.536-0.151-2.201c-0.056-0.665-0.109-1.188-0.159-1.567
			h2.453c0.05,0.19,0.101,0.449,0.151,0.776c0.051,0.328,0.099,0.687,0.144,1.077c0.045,0.391,0.088,0.808,0.128,1.251
			c0.041,0.443,0.071,0.876,0.091,1.298c0.151-0.528,0.313-1.082,0.484-1.663c0.171-0.581,0.368-1.119,0.59-1.615
			c0.222-0.496,0.467-0.907,0.734-1.235C235.932,86.611,236.232,86.448,236.565,86.448z"/>
		<path d="M253.25,113.047h-2.801l-0.091-2.28c-0.232,0.38-0.5,0.739-0.803,1.077c-0.303,0.338-0.631,0.639-0.984,0.902
			c-0.354,0.264-0.725,0.475-1.113,0.633c-0.389,0.158-0.785,0.237-1.188,0.237c-0.818,0-1.57-0.29-2.256-0.871
			c-0.687-0.581-1.282-1.436-1.787-2.565c-0.505-1.129-0.899-2.528-1.181-4.196c-0.283-1.667-0.424-3.599-0.424-5.795
			c0-2.068,0.151-3.947,0.454-5.636c0.303-1.688,0.734-3.135,1.294-4.338c0.56-1.203,1.242-2.132,2.044-2.787
			c0.803-0.654,1.698-0.981,2.688-0.981c0.626,0,1.211,0.153,1.756,0.459c0.545,0.307,1.035,0.702,1.469,1.188V72.072h2.922V113.047
			z M243.575,100.286c0,1.478,0.086,2.755,0.257,3.832c0.172,1.077,0.406,1.963,0.704,2.66c0.298,0.697,0.644,1.214,1.037,1.552
			c0.394,0.338,0.813,0.507,1.257,0.507c0.383,0,0.75-0.1,1.098-0.301s0.671-0.448,0.969-0.744c0.297-0.295,0.567-0.618,0.81-0.966
			c0.242-0.349,0.449-0.67,0.621-0.966V92.813c-0.121-0.211-0.283-0.427-0.484-0.649c-0.202-0.222-0.427-0.422-0.674-0.602
			c-0.248-0.179-0.513-0.327-0.795-0.443c-0.283-0.116-0.57-0.174-0.863-0.174c-0.495,0-0.979,0.153-1.453,0.459
			c-0.475,0.306-0.896,0.823-1.265,1.552c-0.368,0.729-0.664,1.689-0.886,2.881C243.687,97.029,243.575,98.512,243.575,100.286z"/>
		<path d="M267.694,113.617c-0.373,0-0.701-0.079-0.984-0.237c-0.282-0.158-0.524-0.38-0.727-0.665s-0.371-0.628-0.507-1.029
			c-0.137-0.4-0.245-0.855-0.325-1.361c-0.485,0.929-1.055,1.71-1.711,2.343s-1.438,0.95-2.347,0.95
			c-0.707,0-1.325-0.201-1.855-0.602c-0.53-0.401-0.969-0.96-1.317-1.678c-0.348-0.717-0.611-1.557-0.788-2.518
			c-0.177-0.96-0.265-2.011-0.265-3.15c0-2.829,0.517-4.998,1.552-6.507s2.566-2.264,4.595-2.264c0.303,0,0.603,0.016,0.901,0.047
			c0.297,0.032,0.623,0.079,0.977,0.143c0-1.921-0.192-3.393-0.575-4.417c-0.384-1.023-1.015-1.536-1.893-1.536
			c-0.626,0-1.265,0.164-1.916,0.491c-0.651,0.328-1.294,0.766-1.93,1.314v-4.718c0.555-0.549,1.188-0.982,1.9-1.298
			c0.711-0.317,1.4-0.475,2.067-0.475c0.857,0,1.615,0.174,2.271,0.522c0.656,0.348,1.206,0.929,1.65,1.742
			c0.444,0.813,0.78,1.884,1.007,3.214c0.228,1.33,0.341,2.966,0.341,4.908v10.038c0,0.76,0.094,1.319,0.28,1.678
			c0.187,0.359,0.381,0.539,0.583,0.539s0.389-0.016,0.561-0.048c0.171-0.032,0.368-0.1,0.59-0.206v3.642
			c-0.252,0.38-0.563,0.665-0.931,0.855C268.529,113.522,268.128,113.617,267.694,113.617z M264.894,101.109
			c-0.232-0.042-0.49-0.074-0.772-0.095c-0.283-0.021-0.58-0.032-0.893-0.032c-0.676,0-1.231,0.126-1.666,0.38
			s-0.777,0.591-1.029,1.013c-0.252,0.423-0.429,0.897-0.53,1.425c-0.101,0.528-0.151,1.077-0.151,1.647
			c0,1.077,0.154,1.953,0.462,2.628c0.308,0.676,0.739,1.014,1.294,1.014c0.565,0,1.141-0.264,1.726-0.792
			c0.585-0.527,1.105-1.235,1.56-2.122V101.109z"/>
		<path d="M272.403,72.072h2.906v11.399c0,0.274-0.002,0.633-0.007,1.077c-0.006,0.443-0.011,0.902-0.016,1.377
			s-0.013,0.934-0.022,1.377c-0.011,0.443-0.025,0.813-0.046,1.108c0.212-0.274,0.46-0.533,0.742-0.776s0.583-0.448,0.901-0.618
			c0.317-0.168,0.646-0.306,0.983-0.412c0.338-0.105,0.664-0.158,0.977-0.158c0.939,0,1.776,0.301,2.514,0.902
			c0.736,0.602,1.36,1.452,1.87,2.549c0.509,1.098,0.898,2.401,1.165,3.911c0.268,1.51,0.401,3.182,0.401,5.019
			c0,2.216-0.172,4.233-0.515,6.048c-0.343,1.816-0.827,3.368-1.453,4.655s-1.386,2.28-2.279,2.977
			c-0.893,0.696-1.895,1.045-3.005,1.045c-0.495,0-0.986-0.048-1.477-0.143c-0.489-0.095-0.959-0.222-1.408-0.38
			c-0.449-0.159-0.865-0.333-1.249-0.522c-0.384-0.19-0.711-0.38-0.983-0.57V72.072z M275.31,108.582
			c0.283,0.106,0.581,0.206,0.894,0.301c0.313,0.095,0.656,0.143,1.029,0.143c0.849,0,1.563-0.28,2.143-0.839
			c0.58-0.559,1.053-1.298,1.416-2.216c0.363-0.918,0.626-1.974,0.787-3.167c0.161-1.192,0.242-2.422,0.242-3.689
			c0-1.33-0.089-2.497-0.265-3.5c-0.177-1.002-0.419-1.841-0.727-2.517c-0.309-0.675-0.677-1.182-1.105-1.52
			c-0.43-0.337-0.896-0.507-1.4-0.507c-0.223,0-0.473,0.048-0.75,0.143c-0.277,0.095-0.553,0.222-0.825,0.38
			c-0.272,0.159-0.535,0.354-0.787,0.586c-0.252,0.232-0.47,0.486-0.651,0.76V108.582z"/>
		<path d="M291.465,113.047h-2.906V72.072h2.906V113.047z"/>
		<path d="M295.25,99.874c0-2.005,0.157-3.836,0.47-5.494c0.313-1.657,0.755-3.071,1.325-4.243c0.569-1.171,1.254-2.079,2.051-2.723
			c0.798-0.644,1.686-0.966,2.665-0.966c0.959,0,1.799,0.291,2.521,0.871c0.722,0.581,1.33,1.409,1.825,2.486
			c0.494,1.077,0.865,2.396,1.112,3.958c0.247,1.563,0.371,3.325,0.371,5.288v2.597h-9.508c0.05,1.077,0.184,2.074,0.4,2.992
			c0.218,0.918,0.51,1.705,0.879,2.359c0.368,0.655,0.802,1.167,1.302,1.536c0.5,0.37,1.053,0.554,1.658,0.554
			c0.353,0,0.729-0.068,1.128-0.206c0.398-0.137,0.808-0.337,1.227-0.602c0.418-0.264,0.837-0.586,1.256-0.966
			s0.82-0.823,1.204-1.33v4.782c-0.768,0.908-1.577,1.61-2.43,2.105c-0.854,0.496-1.825,0.744-2.915,0.744
			c-1.01,0-1.918-0.312-2.726-0.934s-1.493-1.525-2.059-2.708c-0.565-1.182-0.999-2.623-1.303-4.322
			C295.401,103.954,295.25,102.027,295.25,99.874z M301.73,91.198c-0.969,0-1.759,0.512-2.369,1.536
			c-0.611,1.024-1.018,2.518-1.219,4.48h6.57c-0.05-1.963-0.333-3.456-0.848-4.48C303.351,91.709,302.639,91.198,301.73,91.198z"/>
		<path d="M320.277,93.002c0,2.301,0.159,4.396,0.477,6.286c0.318,1.89,0.768,3.51,1.348,4.861c0.58,1.351,1.276,2.396,2.09,3.135
			c0.812,0.739,1.713,1.108,2.702,1.108c0.918,0,1.829-0.253,2.732-0.76c0.903-0.506,1.77-1.235,2.597-2.185v5.604
			c-0.757,0.845-1.604,1.483-2.543,1.916c-0.939,0.432-1.964,0.649-3.074,0.649c-1.383,0-2.651-0.506-3.808-1.52
			c-1.155-1.013-2.149-2.427-2.982-4.243c-0.833-1.815-1.479-3.984-1.938-6.507c-0.459-2.522-0.688-5.304-0.688-8.344
			c0-3.124,0.247-6,0.742-8.629c0.494-2.628,1.178-4.892,2.051-6.792s1.908-3.383,3.104-4.449c1.196-1.065,2.495-1.599,3.898-1.599
			c0.475,0,0.954,0.059,1.438,0.174c0.484,0.116,0.959,0.274,1.423,0.475c0.465,0.201,0.906,0.433,1.325,0.696
			c0.419,0.264,0.8,0.554,1.143,0.871v5.573c-0.354-0.317-0.747-0.633-1.181-0.95c-0.434-0.316-0.883-0.596-1.348-0.839
			c-0.464-0.242-0.938-0.438-1.423-0.585c-0.484-0.147-0.954-0.222-1.408-0.222c-0.949,0-1.83,0.385-2.642,1.156
			c-0.813,0.771-1.518,1.863-2.112,3.277c-0.596,1.415-1.065,3.125-1.408,5.13C320.448,88.295,320.277,90.533,320.277,93.002z"/>
		<path d="M339.506,79.64c0,0.507-0.051,0.961-0.151,1.362c-0.102,0.401-0.234,0.744-0.401,1.029
			c-0.166,0.285-0.361,0.502-0.583,0.649c-0.222,0.148-0.454,0.222-0.696,0.222c-0.505,0-0.931-0.28-1.279-0.839
			c-0.349-0.559-0.522-1.367-0.522-2.422c0-1.013,0.174-1.805,0.522-2.375c0.349-0.57,0.774-0.855,1.279-0.855
			c0.242,0,0.475,0.074,0.696,0.222c0.222,0.148,0.417,0.364,0.583,0.649c0.167,0.285,0.3,0.623,0.401,1.013
			C339.455,78.685,339.506,79.133,339.506,79.64z M339.097,113.047h-2.906V87.049h2.906V113.047z"/>
		<path d="M350.543,112.477c-0.343,0.38-0.757,0.665-1.241,0.855s-0.989,0.285-1.514,0.285c-1.222,0-2.095-0.696-2.62-2.09
			c-0.524-1.393-0.787-3.525-0.787-6.396V91.198h-2.331v-4.148h2.422c0.172-1.119,0.346-2.285,0.522-3.499
			c0.177-1.213,0.341-2.359,0.492-3.436h1.802v6.935h3.467v4.148h-3.467v14.851c0,0.908,0.111,1.642,0.333,2.201
			c0.222,0.56,0.545,0.839,0.969,0.839c0.374,0,0.722-0.037,1.045-0.111c0.323-0.074,0.626-0.164,0.908-0.27V112.477z"/>
		<path d="M364.412,87.049l-4.526,23.274c-0.172,0.929-0.358,2.085-0.561,3.467s-0.411,2.892-0.628,4.528
			c-0.218,1.636-0.432,3.267-0.644,4.892s-0.409,3.23-0.591,4.813h-2.968c0.182-1.542,0.358-2.951,0.53-4.228
			c0.172-1.277,0.354-2.539,0.545-3.784s0.394-2.48,0.605-3.705c0.212-1.225,0.444-2.597,0.696-4.117
			c-0.857-4.117-1.733-8.307-2.627-12.571c-0.893-4.264-1.764-8.455-2.611-12.571h3.194l3.074,16.72
			c0.05,0.232,0.096,0.501,0.136,0.807c0.04,0.307,0.076,0.576,0.106,0.808c0.03-0.232,0.068-0.48,0.113-0.744
			c0.046-0.264,0.093-0.512,0.144-0.744l2.998-16.846H364.412z"/>
	</g>
	<g>
		<path d="M121.545,214.666h-14.59v-80.674H121.5v10.474h-10.147v24.501h10.193v10.349h-10.193v25h10.193V214.666z"/>
		<path d="M153.883,214.666h-4.353l-14.274-52.37c-0.105-0.332-0.282-1.007-0.53-2.026c-0.248-1.018-0.511-2.129-0.79-3.335
			c-0.278-1.205-0.545-2.389-0.8-3.554c-0.256-1.163-0.444-2.057-0.564-2.681v63.966h-4.104v-80.674h4.668l13.621,50.562
			c0.226,0.873,0.488,1.923,0.789,3.148c0.301,1.227,0.594,2.474,0.879,3.741c0.286,1.269,0.553,2.474,0.801,3.616
			c0.248,1.144,0.44,2.068,0.575,2.774v-63.841h4.082V214.666z"/>
		<path d="M178.824,144.466h-7.352v70.2h-4.42v-70.2h-7.397v-10.474h19.168V144.466z"/>
		<path d="M199.188,214.666h-14.59v-80.674h14.545v10.474h-10.147v24.501h10.193v10.349h-10.193v25h10.193V214.666z"/>
		<path d="M225.933,214.666h-5.231l-8.118-35.599h-2.03v35.599h-4.442v-80.674h6.607c1.548,0,2.991,0.343,4.33,1.029
			c1.338,0.686,2.499,1.85,3.484,3.491c0.985,1.643,1.759,3.814,2.323,6.515c0.564,2.702,0.846,6.089,0.846,10.162
			c0,2.993-0.191,5.715-0.575,8.167c-0.383,2.453-0.887,4.593-1.511,6.421c-0.624,1.83-1.342,3.357-2.153,4.583
			c-0.812,1.226-1.646,2.11-2.503,2.649L225.933,214.666z M219.055,155.563c0-3.865-0.5-6.681-1.5-8.448
			c-1-1.766-2.537-2.649-4.612-2.649h-2.39v24.626h2.165c2.044,0,3.611-1.194,4.702-3.584
			C218.51,163.118,219.055,159.803,219.055,155.563z"/>
		<path d="M247.536,144.466h-7.352v70.2h-4.42v-70.2h-7.397v-10.474h19.168V144.466z"/>
		<path d="M276.491,214.666h-4.759l-3.27-23.13h-11.23l-3.044,23.13h-4.758l11.32-80.674h4.285L276.491,214.666z M263.434,153.381
			c-0.075-0.582-0.169-1.423-0.282-2.525c-0.113-1.101-0.207-2.254-0.282-3.46h-0.09c-0.075,1.289-0.169,2.484-0.282,3.585
			c-0.113,1.102-0.222,2.026-0.327,2.774l-3.541,27.058h8.502L263.434,153.381z"/>
		<path d="M285.083,214.666h-4.442v-80.674h4.442V214.666z"/>
		<path d="M318.526,214.666h-4.353l-14.274-52.37c-0.105-0.332-0.282-1.007-0.53-2.026c-0.248-1.018-0.511-2.129-0.789-3.335
			c-0.278-1.205-0.545-2.389-0.801-3.554c-0.256-1.163-0.443-2.057-0.563-2.681v63.966h-4.104v-80.674h4.668l13.621,50.562
			c0.226,0.873,0.488,1.923,0.789,3.148c0.301,1.227,0.594,2.474,0.88,3.741c0.285,1.269,0.552,2.474,0.801,3.616
			c0.248,1.144,0.439,2.068,0.574,2.774v-63.841h4.082V214.666z"/>
		<path d="M357.269,214.666h-4.104l-0.925-52.744c-0.015-0.499-0.026-1.185-0.034-2.058c-0.007-0.873-0.015-1.797-0.022-2.774
			c-0.008-0.976-0.015-1.943-0.022-2.899c-0.008-0.956-0.011-1.746-0.011-2.369c-0.091,0.957-0.192,1.964-0.305,3.024
			s-0.222,2.058-0.327,2.993s-0.199,1.767-0.281,2.494c-0.083,0.728-0.147,1.258-0.192,1.59l-7.352,52.744h-3.969l-7.486-52.744
			c-0.061-0.415-0.14-0.987-0.237-1.714c-0.098-0.727-0.199-1.559-0.305-2.494c-0.105-0.935-0.214-1.911-0.327-2.93
			c-0.112-1.018-0.206-2.004-0.281-2.961c0,0.708-0.004,1.528-0.012,2.463s-0.019,1.901-0.033,2.899
			c-0.016,0.998-0.03,1.964-0.046,2.899c-0.015,0.936-0.03,1.756-0.045,2.463l-1.218,52.12h-4.104l2.029-80.674h4.758l8.412,59.477
			c0.074,0.583,0.157,1.258,0.248,2.026c0.09,0.77,0.172,1.569,0.248,2.4c0.074,0.832,0.146,1.663,0.214,2.494
			c0.067,0.832,0.124,1.58,0.169,2.245c0.045-0.665,0.105-1.435,0.181-2.307s0.154-1.746,0.236-2.619
			c0.083-0.873,0.17-1.704,0.26-2.494c0.09-0.789,0.173-1.454,0.248-1.995l8.366-59.228h4.938L357.269,214.666z"/>
		<path d="M379.436,214.666h-14.591v-80.674h14.546v10.474h-10.148v24.501h10.193v10.349h-10.193v25h10.193V214.666z"/>
		<path d="M411.773,214.666h-4.353l-14.274-52.37c-0.105-0.332-0.282-1.007-0.53-2.026c-0.248-1.018-0.511-2.129-0.789-3.335
			c-0.278-1.205-0.545-2.389-0.801-3.554c-0.256-1.163-0.443-2.057-0.563-2.681v63.966h-4.104v-80.674h4.668l13.621,50.562
			c0.226,0.873,0.488,1.923,0.789,3.148c0.301,1.227,0.594,2.474,0.88,3.741c0.285,1.269,0.552,2.474,0.801,3.616
			c0.248,1.144,0.439,2.068,0.574,2.774v-63.841h4.082V214.666z"/>
		<path d="M436.714,144.466h-7.352v70.2h-4.42v-70.2h-7.396v-10.474h19.168V144.466z"/>
	</g>
</g>
</svg>
