<?xml version="1.0" encoding="utf-8"?>
<!-- Generator: Adobe Illustrator 14.0.0, SVG Export Plug-In . SVG Version: 6.00 Build 43363)  -->
<!DOCTYPE svg PUBLIC "-//W3C//DTD SVG 1.1//EN" "http://www.w3.org/Graphics/SVG/1.1/DTD/svg11.dtd">
<svg version="1.1" xmlns="http://www.w3.org/2000/svg" xmlns:xlink="http://www.w3.org/1999/xlink" x="0px" y="0px" width="534px"
	 height="138px" viewBox="0 0 534 138" enable-background="new 0 0 534 138" xml:space="preserve">
<g id="Layer_2">
</g>
<g id="Layer_1">
	<g>
		<g id="XMLID_1_">
			<g>
				<path fill="#ED1F24" d="M409.93,47.754h47.181v0.911c0,18.291,31.26,26.584,73.529,26.996v0.021v57.631V134H3.02v-0.688V75.682
					v-0.016c42.68-0.37,79.53-8.664,79.53-27.001v-0.911h43.28c1.15-19.884,66.88-43.396,139-43.396h6.47
					C344.05,4.357,397.83,19.764,409.93,47.754z M28.33,118.067h481V86.881V86.87c-38.17-0.39-68.93-11.881-70.44-25.439h-0.06
					h-56.17c0-23.778-41-40.934-107.33-40.934h-8c-66.33,0-112,17.156-112,40.934v0.198h-54.57
					c-1.59,13.537-34.2,24.606-72.43,24.981v0.01V118.067z"/>
				<path fill="#FCFAFC" d="M155.33,61.629v-0.198c0-23.778,45.67-40.934,112-40.934h8c66.33,0,107.33,17.156,107.33,40.934h56.17
					h0.06C440.4,74.989,471.16,86.48,509.33,86.87v0.011v31.187h-481V86.62v-0.01c38.23-0.375,70.84-11.444,72.43-24.981H155.33z"/>
			</g>
			<g>
				<polyline fill="none" stroke="#000000" stroke-width="4" points="26.33,118.067 28.33,118.067 509.33,118.067 511.33,118.067 
									"/>
				<polyline fill="none" stroke="#000000" stroke-width="4" points="28.33,118.474 28.33,118.067 28.33,86.62 				"/>
				<polyline fill="none" stroke="#000000" stroke-width="4" points="509.33,118.214 509.33,118.067 509.33,86.881 				"/>
				<path fill="none" stroke="#000000" stroke-width="4" d="M100.83,60.588c0,0.349-0.02,0.698-0.07,1.041
					c-1.59,13.537-34.2,24.606-72.43,24.981c-0.66,0.005-1.33,0.01-2,0.01"/>
				<path fill="none" stroke="#000000" stroke-width="4" d="M438.83,60.39c0,0.349,0.02,0.697,0.06,1.041
					C440.4,74.989,471.16,86.48,509.33,86.87c0.66,0.005,1.33,0.011,2,0.011"/>
				<polyline fill="none" stroke="#000000" stroke-width="4" points="99.33,61.629 100.76,61.629 155.33,61.629 157.33,61.629 				
					"/>
				<polyline fill="none" stroke="#000000" stroke-width="4" points="380.83,61.431 382.66,61.431 438.83,61.431 				"/>
				<path fill="none" stroke="#000000" stroke-width="4" d="M155.33,61.431c0-23.778,45.67-40.934,112-40.934"/>
				<path fill="none" stroke="#000000" stroke-width="4" d="M382.66,61.431c0-23.778-41-40.934-107.33-40.934"/>
				<polyline fill="none" stroke="#000000" stroke-width="4" points="257.33,20.498 267.33,20.498 275.33,20.498 				"/>
				<polyline fill="none" stroke="#000000" stroke-width="7" points="0,134 3.02,134 530.64,134 534,134 				"/>
				<line fill="none" stroke="#000000" stroke-width="7" x1="3.02" y1="133.313" x2="3.02" y2="75.682"/>
				<line fill="none" stroke="#000000" stroke-width="7" x1="530.64" y1="133.313" x2="530.64" y2="75.682"/>
				<path fill="none" stroke="#000000" stroke-width="7" d="M82.55,48.665c0,18.337-36.85,26.631-79.53,27.001
					c-1,0.01-2.01,0.016-3.02,0.016"/>
				<path fill="none" stroke="#000000" stroke-width="7" d="M457.11,48.665c0,18.291,31.26,26.584,73.529,26.996
					c1.11,0.016,2.23,0.021,3.36,0.021"/>
				<polyline fill="none" stroke="#000000" stroke-width="7" points="79,47.754 82.55,47.754 125.83,47.754 129,47.754 				"/>
				<polyline fill="none" stroke="#000000" stroke-width="7" points="406,47.754 409.93,47.754 457.11,47.754 460.33,47.754 				"/>
				<path fill="none" stroke="#000000" stroke-width="7" d="M125.81,48.285c0-0.177,0.01-0.354,0.02-0.531
					c1.15-19.884,66.88-43.396,139-43.396"/>
				<path fill="none" stroke="#000000" stroke-width="7" d="M409.93,47.754c-12.1-27.99-65.88-43.396-138.63-43.396"/>
				<polyline fill="none" stroke="#000000" stroke-width="7" points="260.25,4.357 264.83,4.357 271.3,4.357 279.99,4.357 				"/>
			</g>
		</g>
	</g>
	<ellipse fill="#F9F9FA" stroke="#FEE95E" stroke-width="2" cx="37.33" cy="80.083" rx="5" ry="2.373"/>
	<g>
		<ellipse fill="#F9F9FA" stroke="#FEE95E" stroke-width="2" cx="394.999" cy="54.687" rx="5" ry="2.373"/>
		<ellipse fill="#F9F9FA" stroke="#FEE95E" stroke-width="2" cx="420.665" cy="54.948" rx="5" ry="2.373"/>
		<ellipse fill="#F9F9FA" stroke="#FEE95E" stroke-width="2" cx="446.331" cy="55.208" rx="5" ry="2.373"/>
	</g>
	<g>
		<ellipse fill="#FCFAFB" stroke="#FEE95E" stroke-width="2" cx="140.997" cy="54.687" rx="5" ry="2.373"/>
		<ellipse fill="#FCFAFB" stroke="#FEE95E" stroke-width="2" cx="117.664" cy="54.948" rx="5" ry="2.373"/>
		<ellipse fill="#FCFAFB" stroke="#FEE95E" stroke-width="2" cx="94.33" cy="55.208" rx="5" ry="2.373"/>
	</g>
	<g>
		<ellipse fill="#FDFDFE" stroke="#FAEE49" stroke-width="2" cx="518.82" cy="117.21" rx="5" ry="2.373"/>
		<ellipse fill="#FDFDFE" stroke="#FAEE49" stroke-width="2" cx="518.82" cy="108.641" rx="5" ry="2.373"/>
		<ellipse fill="#FDFDFE" stroke="#FAEE49" stroke-width="2" cx="518.82" cy="100.072" rx="5" ry="2.373"/>
		<ellipse fill="#FDFDFE" stroke="#FAEE49" stroke-width="2" cx="518.82" cy="91.504" rx="5" ry="2.373"/>
		<ellipse fill="#FDFDFE" stroke="#FAEE49" stroke-width="2" cx="518.82" cy="82.935" rx="5" ry="2.373"/>
	</g>
	<g>
		<ellipse fill="#F9F9FA" stroke="#FDEE27" stroke-width="2" cx="15.33" cy="83.841" rx="5" ry="2.509"/>
		<ellipse fill="#F9F9FA" stroke="#FDEE27" stroke-width="2" cx="15.33" cy="92.25" rx="5" ry="2.508"/>
		<ellipse fill="#F9F9FA" stroke="#FDEE27" stroke-width="2" cx="15.33" cy="100.658" rx="5" ry="2.508"/>
		<ellipse fill="#F9F9FA" stroke="#FDEE27" stroke-width="2" cx="15.33" cy="109.066" rx="5" ry="2.509"/>
		<ellipse fill="#F9F9FA" stroke="#FDEE27" stroke-width="2" cx="15.33" cy="117.476" rx="5" ry="2.508"/>
	</g>
	<g>
		<ellipse fill="#FCFAFB" stroke="#FDEE27" stroke-width="2" cx="518.82" cy="126.043" rx="5.01" ry="2.373"/>
		<ellipse fill="#FCFAFB" stroke="#FDEE27" stroke-width="2" cx="494.869" cy="126.043" rx="5.01" ry="2.373"/>
		<ellipse fill="#FCFAFB" stroke="#FDEE27" stroke-width="2" cx="470.917" cy="126.043" rx="5.01" ry="2.373"/>
		<ellipse fill="#FCFAFB" stroke="#FDEE27" stroke-width="2" cx="446.966" cy="126.043" rx="5.01" ry="2.373"/>
		<ellipse fill="#FCFAFB" stroke="#FDEE27" stroke-width="2" cx="423.015" cy="126.043" rx="5.01" ry="2.373"/>
		<ellipse fill="#FCFAFB" stroke="#FDEE27" stroke-width="2" cx="399.063" cy="126.043" rx="5.01" ry="2.373"/>
		<ellipse fill="#FCFAFB" stroke="#FDEE27" stroke-width="2" cx="375.111" cy="126.043" rx="5.01" ry="2.373"/>
		<ellipse fill="#FCFAFB" stroke="#FDEE27" stroke-width="2" cx="351.16" cy="126.043" rx="5.01" ry="2.373"/>
		<ellipse fill="#FCFAFB" stroke="#FDEE27" stroke-width="2" cx="327.209" cy="126.043" rx="5.01" ry="2.373"/>
		<ellipse fill="#FCFAFB" stroke="#FDEE27" stroke-width="2" cx="303.257" cy="126.043" rx="5.01" ry="2.373"/>
		<ellipse fill="#FCFAFB" stroke="#FDEE27" stroke-width="2" cx="279.306" cy="126.043" rx="5.01" ry="2.373"/>
		<ellipse fill="#FCFAFB" stroke="#FDEE27" stroke-width="2" cx="255.354" cy="126.043" rx="5.01" ry="2.373"/>
		<ellipse fill="#FCFAFB" stroke="#FDEE27" stroke-width="2" cx="231.403" cy="126.043" rx="5.01" ry="2.373"/>
		<ellipse fill="#FCFAFB" stroke="#FDEE27" stroke-width="2" cx="207.452" cy="126.043" rx="5.01" ry="2.373"/>
		<ellipse fill="#FCFAFB" stroke="#FDEE27" stroke-width="2" cx="183.5" cy="126.043" rx="5.01" ry="2.373"/>
		<ellipse fill="#FCFAFB" stroke="#FDEE27" stroke-width="2" cx="159.548" cy="126.043" rx="5.01" ry="2.373"/>
		<ellipse fill="#FCFAFB" stroke="#FDEE27" stroke-width="2" cx="135.597" cy="126.043" rx="5.01" ry="2.373"/>
		<ellipse fill="#FCFAFB" stroke="#FDEE27" stroke-width="2" cx="111.646" cy="126.043" rx="5.01" ry="2.373"/>
		<ellipse fill="#FCFAFB" stroke="#FDEE27" stroke-width="2" cx="87.694" cy="126.043" rx="5.01" ry="2.373"/>
		<ellipse fill="#FCFAFB" stroke="#FDEE27" stroke-width="2" cx="63.743" cy="126.043" rx="5.01" ry="2.373"/>
		<ellipse fill="#FCFAFB" stroke="#FDEE27" stroke-width="2" cx="39.792" cy="126.043" rx="5.01" ry="2.373"/>
		<ellipse fill="#FCFAFB" stroke="#FDEE27" stroke-width="2" cx="15.84" cy="126.043" rx="5.01" ry="2.373"/>
	</g>
	<g>
		<ellipse fill="#F9F9FA" stroke="#FEE95E" stroke-width="2" cx="391.999" cy="45.383" rx="5" ry="2.373"/>
		<ellipse fill="#F9F9FA" stroke="#FEE95E" stroke-width="2" cx="376.771" cy="32.113" rx="5" ry="2.373"/>
		<ellipse fill="#F9F9FA" stroke="#FEE95E" stroke-width="2" cx="358.458" cy="24.184" rx="5" ry="2.373"/>
		<ellipse fill="#F9F9FA" stroke="#FEE95E" stroke-width="2" cx="339.218" cy="18.185" rx="5" ry="2.373"/>
		<ellipse fill="#F9F9FA" stroke="#FEE95E" stroke-width="2" cx="319.237" cy="15.229" rx="5" ry="2.373"/>
		<ellipse fill="#F9F9FA" stroke="#FEE95E" stroke-width="2" cx="299.238" cy="12.491" rx="5" ry="2.373"/>
		<ellipse fill="#F9F9FA" stroke="#FEE95E" stroke-width="2" cx="279.044" cy="12.08" rx="5" ry="2.373"/>
		<ellipse fill="#F9F9FA" stroke="#FEE95E" stroke-width="2" cx="258.865" cy="12.321" rx="5" ry="2.373"/>
		<ellipse fill="#F9F9FA" stroke="#FEE95E" stroke-width="2" cx="238.711" cy="13.672" rx="5" ry="2.373"/>
		<ellipse fill="#F9F9FA" stroke="#FEE95E" stroke-width="2" cx="218.721" cy="16.244" rx="5" ry="2.373"/>
		<ellipse fill="#F9F9FA" stroke="#FEE95E" stroke-width="2" cx="198.921" cy="20.237" rx="5" ry="2.373"/>
		<ellipse fill="#F9F9FA" stroke="#FEE95E" stroke-width="2" cx="179.47" cy="25.45" rx="5" ry="2.373"/>
		<ellipse fill="#F9F9FA" stroke="#FEE95E" stroke-width="2" cx="160.545" cy="32.51" rx="5" ry="2.373"/>
		<ellipse fill="#F9F9FA" stroke="#FEE95E" stroke-width="2" cx="144.997" cy="45.383" rx="5" ry="2.373"/>
	</g>
	<ellipse fill="#F9F9FA" stroke="#FEE95E" stroke-width="2" cx="498.554" cy="80.428" rx="5" ry="2.373"/>
	<ellipse fill="#F9F9FA" stroke="#FEE95E" stroke-width="2" cx="480.08" cy="78.055" rx="5" ry="2.373"/>
	<ellipse fill="#F9F9FA" stroke="#FEE95E" stroke-width="2" cx="462.108" cy="72.443" rx="5" ry="2.373"/>
	<ellipse fill="#F9F9FA" stroke="#FEE95E" stroke-width="2" cx="451.331" cy="64.546" rx="5" ry="2.373"/>
	<ellipse fill="#F9F9FA" stroke="#FEE95E" stroke-width="2" cx="87.549" cy="64.546" rx="5" ry="2.373"/>
	<ellipse fill="#F9F9FA" stroke="#FEE95E" stroke-width="2" cx="73.997" cy="72.443" rx="5" ry="2.373"/>
	<ellipse fill="#F9F9FA" stroke="#FEE95E" stroke-width="2" cx="56.58" cy="77.189" rx="5" ry="2.373"/>
	<g>
		<path d="M193.854,60.091h-3.195l-2.195-6.117h-7.54l-2.044,6.117h-3.195l7.601-21.334h2.877L193.854,60.091z M185.087,43.885
			c-0.051-0.154-0.114-0.376-0.189-0.667s-0.139-0.596-0.189-0.915h-0.061c-0.051,0.341-0.114,0.657-0.189,0.948
			c-0.076,0.292-0.149,0.536-0.219,0.734l-2.377,7.155h5.708L185.087,43.885z"/>
		<path d="M199.925,46.556h2.832v2.16h-2.832v11.376h-2.907V48.715h-2.302v-2.16h2.302v-2.968c0-1.67,0.375-2.94,1.128-3.808
			c0.751-0.868,1.779-1.303,3.081-1.303c0.232,0,0.494,0.028,0.787,0.083c0.293,0.055,0.54,0.121,0.742,0.198v2.588
			c-0.091-0.021-0.202-0.046-0.333-0.074c-0.131-0.027-0.265-0.049-0.401-0.066c-0.136-0.016-0.265-0.03-0.386-0.041
			c-0.121-0.011-0.227-0.017-0.318-0.017c-0.404,0-0.737,0.176-1,0.528c-0.262,0.352-0.394,0.907-0.394,1.665V46.556z"/>
		<path d="M209.418,46.556h2.832v2.16h-2.832v11.376h-2.907V48.715h-2.302v-2.16h2.302v-2.968c0-1.67,0.375-2.94,1.128-3.808
			c0.751-0.868,1.779-1.303,3.081-1.303c0.232,0,0.494,0.028,0.787,0.083c0.293,0.055,0.54,0.121,0.742,0.198v2.588
			c-0.091-0.021-0.202-0.046-0.333-0.074c-0.131-0.027-0.265-0.049-0.401-0.066c-0.136-0.016-0.265-0.03-0.386-0.041
			c-0.121-0.011-0.227-0.017-0.318-0.017c-0.404,0-0.737,0.176-1,0.528c-0.262,0.352-0.394,0.907-0.394,1.665V46.556z"/>
		<path d="M227.572,53.266c0,1.066-0.157,2.039-0.47,2.918s-0.757,1.629-1.332,2.25c-0.576,0.621-1.274,1.102-2.097,1.442
			c-0.823,0.341-1.749,0.511-2.778,0.511c-0.989,0-1.885-0.165-2.688-0.495c-0.802-0.33-1.486-0.794-2.051-1.393
			c-0.565-0.599-1.002-1.327-1.31-2.185c-0.308-0.857-0.462-1.813-0.462-2.869c0-1.132,0.156-2.144,0.469-3.034
			s0.765-1.646,1.355-2.267c0.591-0.621,1.307-1.093,2.15-1.417s1.794-0.486,2.854-0.486c1.02,0,1.923,0.159,2.71,0.478
			c0.787,0.319,1.451,0.78,1.991,1.385s0.951,1.341,1.234,2.209C227.43,51.183,227.572,52.167,227.572,53.266z M224.649,53.266
			c0-1.495-0.303-2.621-0.908-3.379c-0.606-0.759-1.489-1.138-2.65-1.138c-1.171,0-2.084,0.39-2.74,1.17
			c-0.656,0.781-0.984,1.918-0.984,3.413c0,0.715,0.086,1.355,0.257,1.921c0.172,0.566,0.419,1.044,0.742,1.435
			c0.323,0.39,0.714,0.689,1.173,0.898c0.459,0.209,0.977,0.313,1.552,0.313c1.161,0,2.044-0.396,2.65-1.187
			C224.347,55.92,224.649,54.772,224.649,53.266z"/>
		<path d="M236.565,46.243c0.343,0,0.674,0.041,0.992,0.124s0.638,0.189,0.961,0.321v2.572c-0.343-0.088-0.707-0.151-1.09-0.19
			c-0.383-0.038-0.747-0.058-1.09-0.058c-0.384,0-0.709,0.091-0.977,0.272c-0.268,0.182-0.482,0.423-0.644,0.726
			c-0.162,0.302-0.278,0.654-0.348,1.055c-0.071,0.401-0.106,0.822-0.106,1.261v7.765h-2.907v-8.985
			c0-0.406-0.015-0.835-0.045-1.286s-0.068-0.885-0.113-1.303c-0.045-0.417-0.096-0.799-0.151-1.146
			c-0.056-0.346-0.109-0.618-0.159-0.816h2.453c0.05,0.099,0.101,0.234,0.151,0.404c0.051,0.171,0.099,0.357,0.144,0.561
			c0.045,0.204,0.088,0.42,0.128,0.651c0.041,0.231,0.071,0.456,0.091,0.676c0.151-0.274,0.313-0.563,0.484-0.865
			c0.171-0.302,0.368-0.583,0.59-0.841s0.467-0.473,0.734-0.643C235.932,46.328,236.232,46.243,236.565,46.243z"/>
		<path d="M253.25,60.091h-2.801l-0.091-1.187c-0.232,0.198-0.5,0.385-0.803,0.561c-0.303,0.176-0.631,0.333-0.984,0.47
			c-0.354,0.138-0.725,0.248-1.113,0.33c-0.389,0.082-0.785,0.124-1.188,0.124c-0.818,0-1.57-0.151-2.256-0.454
			c-0.687-0.302-1.282-0.747-1.787-1.335c-0.505-0.588-0.899-1.316-1.181-2.185c-0.283-0.868-0.424-1.874-0.424-3.017
			c0-1.077,0.151-2.055,0.454-2.935c0.303-0.879,0.734-1.632,1.294-2.258s1.242-1.11,2.044-1.451
			c0.803-0.34,1.698-0.511,2.688-0.511c0.626,0,1.211,0.08,1.756,0.239c0.545,0.16,1.035,0.366,1.469,0.618v-8.342h2.922V60.091z
			 M243.575,53.447c0,0.77,0.086,1.434,0.257,1.995c0.172,0.561,0.406,1.022,0.704,1.385c0.298,0.362,0.644,0.632,1.037,0.808
			c0.394,0.176,0.813,0.264,1.257,0.264c0.383,0,0.75-0.052,1.098-0.156s0.671-0.233,0.969-0.388
			c0.297-0.154,0.567-0.321,0.81-0.503c0.242-0.181,0.449-0.349,0.621-0.503v-6.792c-0.121-0.109-0.283-0.223-0.484-0.338
			c-0.202-0.115-0.427-0.22-0.674-0.313c-0.248-0.093-0.513-0.17-0.795-0.231c-0.283-0.061-0.57-0.091-0.863-0.091
			c-0.495,0-0.979,0.08-1.453,0.239c-0.475,0.159-0.896,0.429-1.265,0.808c-0.368,0.379-0.664,0.879-0.886,1.5
			C243.687,51.752,243.575,52.524,243.575,53.447z"/>
		<path d="M267.694,60.388c-0.373,0-0.701-0.042-0.984-0.124c-0.282-0.083-0.524-0.198-0.727-0.347
			c-0.202-0.148-0.371-0.327-0.507-0.536c-0.137-0.208-0.245-0.445-0.325-0.709c-0.485,0.484-1.055,0.891-1.711,1.22
			s-1.438,0.495-2.347,0.495c-0.707,0-1.325-0.104-1.855-0.313c-0.53-0.208-0.969-0.5-1.317-0.874s-0.611-0.811-0.788-1.311
			c-0.177-0.5-0.265-1.047-0.265-1.64c0-1.473,0.517-2.602,1.552-3.388c1.035-0.786,2.566-1.179,4.595-1.179
			c0.303,0,0.603,0.008,0.901,0.025c0.297,0.016,0.623,0.041,0.977,0.074c0-1-0.192-1.767-0.575-2.3
			c-0.384-0.533-1.015-0.799-1.893-0.799c-0.626,0-1.265,0.085-1.916,0.255s-1.294,0.398-1.93,0.684v-2.457
			c0.555-0.286,1.188-0.511,1.9-0.676s1.4-0.247,2.067-0.247c0.857,0,1.615,0.09,2.271,0.272c0.656,0.181,1.206,0.483,1.65,0.907
			s0.78,0.981,1.007,1.673c0.228,0.692,0.341,1.544,0.341,2.555v5.227c0,0.396,0.094,0.687,0.28,0.874
			c0.187,0.187,0.381,0.28,0.583,0.28s0.389-0.008,0.561-0.024c0.171-0.017,0.368-0.052,0.59-0.107v1.896
			c-0.252,0.198-0.563,0.346-0.931,0.445C268.529,60.338,268.128,60.388,267.694,60.388z M264.894,53.876
			c-0.232-0.022-0.49-0.039-0.772-0.05c-0.283-0.011-0.58-0.016-0.893-0.016c-0.676,0-1.231,0.066-1.666,0.198
			s-0.777,0.308-1.029,0.527c-0.252,0.22-0.429,0.467-0.53,0.742s-0.151,0.561-0.151,0.857c0,0.561,0.154,1.017,0.462,1.369
			c0.308,0.352,0.739,0.527,1.294,0.527c0.565,0,1.141-0.137,1.726-0.412c0.585-0.274,1.105-0.643,1.56-1.104V53.876z"/>
		<path d="M272.403,38.757h2.906v5.936c0,0.143-0.002,0.33-0.007,0.561c-0.006,0.23-0.011,0.47-0.016,0.717
			c-0.005,0.248-0.013,0.487-0.022,0.717c-0.011,0.231-0.025,0.423-0.046,0.577c0.212-0.143,0.46-0.277,0.742-0.404
			s0.583-0.233,0.901-0.322c0.317-0.088,0.646-0.159,0.983-0.214c0.338-0.055,0.664-0.082,0.977-0.082
			c0.939,0,1.776,0.156,2.514,0.47c0.736,0.313,1.36,0.756,1.87,1.327c0.509,0.572,0.898,1.25,1.165,2.036
			c0.268,0.786,0.401,1.657,0.401,2.613c0,1.154-0.172,2.204-0.515,3.149s-0.827,1.753-1.453,2.423s-1.386,1.187-2.279,1.55
			c-0.893,0.363-1.895,0.544-3.005,0.544c-0.495,0-0.986-0.024-1.477-0.074c-0.489-0.049-0.959-0.115-1.408-0.198
			s-0.865-0.173-1.249-0.272s-0.711-0.198-0.983-0.297V38.757z M275.31,57.767c0.283,0.055,0.581,0.107,0.894,0.157
			s0.656,0.074,1.029,0.074c0.849,0,1.563-0.146,2.143-0.437c0.58-0.291,1.053-0.676,1.416-1.154
			c0.363-0.479,0.626-1.028,0.787-1.649c0.161-0.621,0.242-1.261,0.242-1.921c0-0.692-0.089-1.299-0.265-1.822
			c-0.177-0.521-0.419-0.958-0.727-1.311c-0.309-0.352-0.677-0.615-1.105-0.792c-0.43-0.175-0.896-0.264-1.4-0.264
			c-0.223,0-0.473,0.025-0.75,0.074s-0.553,0.116-0.825,0.198c-0.272,0.083-0.535,0.185-0.787,0.305
			c-0.252,0.121-0.47,0.253-0.651,0.396V57.767z"/>
		<path d="M291.465,60.091h-2.906V38.757h2.906V60.091z"/>
		<path d="M295.25,53.233c0-1.044,0.157-1.998,0.47-2.86s0.755-1.6,1.325-2.209c0.569-0.61,1.254-1.083,2.051-1.418
			c0.798-0.335,1.686-0.502,2.665-0.502c0.959,0,1.799,0.151,2.521,0.453s1.33,0.734,1.825,1.294
			c0.494,0.561,0.865,1.248,1.112,2.061c0.247,0.813,0.371,1.731,0.371,2.753v1.352h-9.508c0.05,0.561,0.184,1.08,0.4,1.558
			c0.218,0.479,0.51,0.888,0.879,1.229c0.368,0.341,0.802,0.607,1.302,0.8s1.053,0.288,1.658,0.288c0.353,0,0.729-0.035,1.128-0.107
			c0.398-0.071,0.808-0.176,1.227-0.313c0.418-0.137,0.837-0.305,1.256-0.502c0.419-0.198,0.82-0.429,1.204-0.693v2.49
			c-0.768,0.473-1.577,0.838-2.43,1.096c-0.854,0.258-1.825,0.388-2.915,0.388c-1.01,0-1.918-0.163-2.726-0.486
			c-0.808-0.324-1.493-0.794-2.059-1.41s-0.999-1.366-1.303-2.25C295.401,55.357,295.25,54.354,295.25,53.233z M301.73,48.715
			c-0.969,0-1.759,0.267-2.369,0.8c-0.611,0.533-1.018,1.311-1.219,2.333h6.57c-0.05-1.022-0.333-1.8-0.848-2.333
			S302.639,48.715,301.73,48.715z"/>
		<path d="M320.277,49.655c0,1.198,0.159,2.289,0.477,3.272c0.318,0.984,0.768,1.828,1.348,2.531c0.58,0.704,1.276,1.248,2.09,1.632
			c0.812,0.385,1.713,0.577,2.702,0.577c0.918,0,1.829-0.132,2.732-0.396s1.77-0.643,2.597-1.138v2.918
			c-0.757,0.439-1.604,0.772-2.543,0.998c-0.939,0.225-1.964,0.338-3.074,0.338c-1.383,0-2.651-0.264-3.808-0.792
			c-1.155-0.527-2.149-1.264-2.982-2.209s-1.479-2.075-1.938-3.388c-0.459-1.313-0.688-2.762-0.688-4.344
			c0-1.626,0.247-3.125,0.742-4.493c0.494-1.369,1.178-2.547,2.051-3.537c0.873-0.989,1.908-1.761,3.104-2.316
			c1.196-0.555,2.495-0.833,3.898-0.833c0.475,0,0.954,0.031,1.438,0.091c0.484,0.061,0.959,0.143,1.423,0.248
			c0.465,0.104,0.906,0.225,1.325,0.362c0.419,0.138,0.8,0.289,1.143,0.454v2.901c-0.354-0.165-0.747-0.33-1.181-0.494
			c-0.434-0.165-0.883-0.311-1.348-0.437c-0.464-0.126-0.938-0.228-1.423-0.305c-0.484-0.077-0.954-0.115-1.408-0.115
			c-0.949,0-1.83,0.201-2.642,0.602c-0.813,0.401-1.518,0.97-2.112,1.707c-0.596,0.736-1.065,1.626-1.408,2.671
			C320.448,47.205,320.277,48.369,320.277,49.655z"/>
		<path d="M339.506,42.698c0,0.264-0.051,0.5-0.151,0.709c-0.102,0.209-0.234,0.387-0.401,0.536
			c-0.166,0.148-0.361,0.261-0.583,0.338c-0.222,0.077-0.454,0.115-0.696,0.115c-0.505,0-0.931-0.146-1.279-0.437
			c-0.349-0.291-0.522-0.711-0.522-1.261c0-0.527,0.174-0.939,0.522-1.236s0.774-0.445,1.279-0.445c0.242,0,0.475,0.039,0.696,0.115
			c0.222,0.077,0.417,0.19,0.583,0.338c0.167,0.148,0.3,0.324,0.401,0.527C339.455,42.201,339.506,42.434,339.506,42.698z
			 M339.097,60.091h-2.906V46.556h2.906V60.091z"/>
		<path d="M350.543,59.794c-0.343,0.198-0.757,0.346-1.241,0.445c-0.484,0.099-0.989,0.148-1.514,0.148
			c-1.222,0-2.095-0.363-2.62-1.088c-0.524-0.725-0.787-1.835-0.787-3.33v-7.254h-2.331v-2.16h2.422
			c0.172-0.583,0.346-1.189,0.522-1.822c0.177-0.632,0.341-1.228,0.492-1.789h1.802v3.61h3.467v2.16h-3.467v7.732
			c0,0.473,0.111,0.854,0.333,1.146c0.222,0.291,0.545,0.437,0.969,0.437c0.374,0,0.722-0.019,1.045-0.058
			c0.323-0.038,0.626-0.085,0.908-0.14V59.794z"/>
		<path d="M364.412,46.556l-4.526,12.118c-0.172,0.484-0.358,1.085-0.561,1.805c-0.202,0.72-0.411,1.506-0.628,2.358
			c-0.218,0.852-0.432,1.701-0.644,2.547c-0.212,0.846-0.409,1.682-0.591,2.506h-2.968c0.182-0.803,0.358-1.536,0.53-2.201
			s0.354-1.322,0.545-1.97s0.394-1.292,0.605-1.929c0.212-0.638,0.444-1.352,0.696-2.144c-0.857-2.143-1.733-4.325-2.627-6.545
			c-0.893-2.22-1.764-4.402-2.611-6.545h3.194l3.074,8.705c0.05,0.121,0.096,0.261,0.136,0.42s0.076,0.299,0.106,0.42
			c0.03-0.121,0.068-0.25,0.113-0.388c0.046-0.137,0.093-0.266,0.144-0.387l2.998-8.771H364.412z"/>
	</g>
	<g>
		<path d="M121.545,113h-14.59V70.997H121.5v5.453h-10.147v12.757h10.193v5.389h-10.193v13.016h10.193V113z"/>
		<path d="M153.883,113h-4.353l-14.274-27.266c-0.105-0.173-0.282-0.524-0.53-1.055c-0.248-0.53-0.511-1.109-0.79-1.736
			s-0.545-1.244-0.8-1.851c-0.256-0.605-0.444-1.071-0.564-1.396V113h-4.104V70.997h4.668l13.621,26.325
			c0.226,0.454,0.488,1.001,0.789,1.639c0.301,0.639,0.594,1.288,0.879,1.948s0.553,1.287,0.801,1.882
			c0.248,0.596,0.44,1.077,0.575,1.444V70.997h4.082V113z"/>
		<path d="M178.824,76.45h-7.352V113h-4.42V76.45h-7.397v-5.453h19.168V76.45z"/>
		<path d="M199.188,113h-14.59V70.997h14.545v5.453h-10.147v12.757h10.193v5.389h-10.193v13.016h10.193V113z"/>
		<path d="M225.933,113h-5.231l-8.118-18.534h-2.03V113h-4.442V70.997h6.607c1.548,0,2.991,0.178,4.33,0.536
			c1.338,0.357,2.499,0.963,3.484,1.817c0.985,0.855,1.759,1.986,2.323,3.392c0.564,1.407,0.846,3.17,0.846,5.291
			c0,1.558-0.191,2.976-0.575,4.252c-0.383,1.277-0.887,2.391-1.511,3.343c-0.624,0.952-1.342,1.748-2.153,2.386
			c-0.812,0.639-1.646,1.099-2.503,1.38L225.933,113z M219.055,82.228c0-2.013-0.5-3.479-1.5-4.398
			c-1-0.919-2.537-1.379-4.612-1.379h-2.39v12.821h2.165c2.044,0,3.611-0.621,4.702-1.866
			C218.51,86.161,219.055,84.436,219.055,82.228z"/>
		<path d="M247.536,76.45h-7.352V113h-4.42V76.45h-7.397v-5.453h19.168V76.45z"/>
		<path d="M276.491,113h-4.759l-3.27-12.043h-11.23L254.188,113h-4.758l11.32-42.003h4.285L276.491,113z M263.434,81.092
			c-0.075-0.303-0.169-0.741-0.282-1.314c-0.113-0.573-0.207-1.174-0.282-1.802h-0.09c-0.075,0.671-0.169,1.293-0.282,1.867
			c-0.113,0.574-0.222,1.055-0.327,1.444l-3.541,14.087h8.502L263.434,81.092z"/>
		<path d="M285.083,113h-4.442V70.997h4.442V113z"/>
		<path d="M318.526,113h-4.353l-14.274-27.266c-0.105-0.173-0.282-0.524-0.53-1.055c-0.248-0.53-0.511-1.109-0.789-1.736
			s-0.545-1.244-0.801-1.851c-0.256-0.605-0.443-1.071-0.563-1.396V113h-4.104V70.997h4.668L311.4,97.322
			c0.226,0.454,0.488,1.001,0.789,1.639c0.301,0.639,0.594,1.288,0.88,1.948c0.285,0.66,0.552,1.287,0.801,1.882
			c0.248,0.596,0.439,1.077,0.574,1.444V70.997h4.082V113z"/>
		<path d="M357.269,113h-4.104l-0.925-27.461c-0.015-0.26-0.026-0.617-0.034-1.071c-0.007-0.455-0.015-0.936-0.022-1.444
			c-0.008-0.508-0.015-1.011-0.022-1.51c-0.008-0.497-0.011-0.909-0.011-1.233c-0.091,0.498-0.192,1.022-0.305,1.575
			c-0.112,0.552-0.222,1.071-0.327,1.558c-0.105,0.487-0.199,0.92-0.281,1.299c-0.083,0.378-0.147,0.655-0.192,0.828L343.692,113
			h-3.969l-7.486-27.461c-0.061-0.216-0.14-0.514-0.237-0.893c-0.098-0.378-0.199-0.812-0.305-1.299
			c-0.105-0.487-0.214-0.995-0.327-1.525c-0.112-0.53-0.206-1.044-0.281-1.542c0,0.368-0.004,0.795-0.012,1.282
			s-0.019,0.99-0.033,1.509c-0.016,0.52-0.03,1.022-0.046,1.51c-0.015,0.487-0.03,0.914-0.045,1.282L329.733,113h-4.104
			l2.029-42.003h4.758l8.412,30.967c0.074,0.303,0.157,0.654,0.248,1.055c0.09,0.4,0.172,0.817,0.248,1.25
			c0.074,0.433,0.146,0.865,0.214,1.298c0.067,0.434,0.124,0.823,0.169,1.169c0.045-0.346,0.105-0.747,0.181-1.201
			s0.154-0.909,0.236-1.363c0.083-0.454,0.17-0.887,0.26-1.299c0.09-0.41,0.173-0.757,0.248-1.038l8.366-30.837h4.938L357.269,113z"
			/>
		<path d="M379.436,113h-14.591V70.997h14.546v5.453h-10.148v12.757h10.193v5.389h-10.193v13.016h10.193V113z"/>
		<path d="M411.773,113h-4.353l-14.274-27.266c-0.105-0.173-0.282-0.524-0.53-1.055c-0.248-0.53-0.511-1.109-0.789-1.736
			s-0.545-1.244-0.801-1.851c-0.256-0.605-0.443-1.071-0.563-1.396V113h-4.104V70.997h4.668l13.621,26.325
			c0.226,0.454,0.488,1.001,0.789,1.639c0.301,0.639,0.594,1.288,0.88,1.948c0.285,0.66,0.552,1.287,0.801,1.882
			c0.248,0.596,0.439,1.077,0.574,1.444V70.997h4.082V113z"/>
		<path d="M436.714,76.45h-7.352V113h-4.42V76.45h-7.396v-5.453h19.168V76.45z"/>
	</g>
</g>
</svg>
